<svg width="1544" height="255" viewBox="0 0 1544 255" fill="none" xmlns="http://www.w3.org/2000/svg">
<path d="M77.298 3.28937H118.513V4.35528C112.117 4.35528 103.946 7.55299 107.854 25.318L160.794 231.748C165.413 247.381 176.427 250.934 182.467 250.934V252H124.908V250.934C131.304 250.934 139.831 248.092 135.567 229.971L112.117 137.948C82.6275 140.08 43.8997 159.622 28.9771 220.734C24.0029 248.092 28.2665 250.934 37.5043 250.934V252H0.553009V250.934C10.5014 250.934 16.1862 248.092 22.2264 229.971L77.298 3.28937ZM31.8195 204.745C47.808 154.292 78.3639 130.487 109.275 126.934L79.0745 10.3954L31.8195 204.745ZM230.868 74.3496V189.112C236.198 129.421 253.963 72.9284 292.336 72.9284C310.456 72.9284 333.906 78.9685 333.906 116.986V193.375C338.88 132.264 356.29 72.9284 395.728 72.9284C413.848 72.9284 437.298 78.9685 437.298 116.986V229.971C437.298 250.579 447.247 250.934 453.642 250.934V252H396.083V250.934C402.479 250.934 412.427 250.579 412.427 229.971V116.986C412.427 87.1404 410.295 76.4814 392.53 76.4814C354.513 76.4814 333.906 158.556 333.906 229.971C333.906 250.579 343.854 250.934 350.25 250.934V252H292.691V250.934C299.086 250.934 309.035 250.579 309.035 229.971V116.986C309.035 87.1404 306.903 76.4814 289.138 76.4814C253.963 76.4814 233.711 146.476 230.868 213.628V229.971C230.868 250.579 240.817 250.934 247.212 250.934V252H189.654V250.934C196.049 250.934 205.997 250.579 205.997 229.971V103.484C205.997 82.8768 196.049 82.5215 189.654 82.5215V81.4556L230.868 74.3496ZM604.892 74.3496V229.971C604.892 250.579 614.84 250.934 621.236 250.934V252H580.021V137.238C574.691 196.928 556.926 253.421 518.554 253.421C500.434 253.421 476.984 247.381 476.984 209.364V103.484C476.984 82.8768 467.035 82.5215 460.64 82.5215V81.4556L501.855 74.3496V209.364C501.855 239.209 503.987 249.868 521.752 249.868C556.926 249.868 577.179 179.874 580.021 112.722V103.484C580.021 82.8768 570.073 82.5215 563.677 82.5215V81.4556L604.892 74.3496ZM635.334 117.696C635.334 94.2464 663.403 71.8624 698.933 71.8624C724.87 71.8624 749.741 83.2321 763.953 99.9312L753.649 145.765H752.583C755.781 125.868 753.649 98.1547 728.423 82.5215C719.54 77.9026 709.592 75.4155 698.933 75.4155C668.377 75.4155 657.363 93.8911 657.363 110.946C657.363 146.12 769.993 155.003 769.993 201.903C769.993 226.418 741.924 254.487 698.933 254.487C663.758 254.487 642.795 243.117 628.583 226.418L628.228 226.063L638.532 180.229H639.598C636.4 200.126 638.532 229.261 663.758 243.828C672.996 248.447 684.721 250.934 698.933 250.934C732.687 250.934 746.543 225.708 746.543 209.719C746.543 169.215 635.334 163.53 635.334 117.696ZM926.306 211.851C921.332 238.854 899.659 254.842 865.905 254.842C810.833 254.842 777.08 213.983 777.08 164.241C777.08 114.143 810.833 73.2837 865.905 73.2837C893.263 73.2837 916.713 83.5874 932.346 100.642L921.332 118.407L845.653 244.539C854.535 247.736 864.839 249.158 876.919 249.158C892.553 249.158 919.911 238.854 924.885 211.851H926.306ZM801.951 164.241C801.951 205.1 814.386 233.169 844.232 244.183C865.194 202.968 924.53 97.4441 885.091 79.3238C879.406 77.5473 873.011 76.8367 865.905 76.8367C822.914 76.8367 801.951 110.59 801.951 164.241ZM939.463 153.226V147.897H1028.29V153.226H939.463ZM1143.59 254.842C1076.44 254.842 1035.23 197.994 1035.23 127.645C1035.23 57.2951 1076.44 0.446981 1143.59 0.446981C1210.75 0.446981 1251.96 57.2951 1251.96 127.645C1251.96 197.994 1210.75 254.842 1143.59 254.842ZM1143.59 251.289C1195.82 251.289 1224.96 202.968 1224.96 127.645C1224.96 52.3209 1195.82 3.99999 1143.59 3.99999C1091.37 3.99999 1062.23 52.3209 1062.23 127.645C1062.23 202.968 1091.37 251.289 1143.59 251.289ZM1408.25 211.851C1403.28 238.854 1381.6 254.842 1347.85 254.842C1292.78 254.842 1259.03 213.983 1259.03 164.241C1259.03 114.143 1292.78 73.2837 1347.85 73.2837C1375.21 73.2837 1398.66 83.5874 1414.29 100.642L1403.28 118.407L1327.6 244.539C1336.48 247.736 1346.79 249.158 1358.87 249.158C1374.5 249.158 1401.86 238.854 1406.83 211.851H1408.25ZM1283.9 164.241C1283.9 205.1 1296.33 233.169 1326.18 244.183C1347.14 202.968 1406.48 97.4441 1367.04 79.3238C1361.35 77.5473 1354.96 76.8367 1347.85 76.8367C1304.86 76.8367 1283.9 110.59 1283.9 164.241ZM1437.75 103.484C1437.75 82.8768 1427.8 82.5215 1421.41 82.5215V81.4556L1462.62 74.3496V229.971C1462.62 250.579 1472.57 250.934 1478.97 250.934V252H1421.41V250.934C1427.8 250.934 1437.75 250.579 1437.75 229.971V103.484ZM1445.93 54.0974C1435.62 54.0974 1427.09 45.5702 1427.09 35.2665C1427.09 24.9627 1435.62 16.4355 1445.93 16.4355C1456.23 16.4355 1464.76 24.9627 1464.76 35.2665C1464.76 45.5702 1456.23 54.0974 1445.93 54.0974ZM1527.16 3.28937V229.971C1527.16 250.579 1537.11 250.934 1543.51 250.934V252H1485.95V250.934C1492.34 250.934 1502.29 250.579 1502.29 229.971V32.424C1502.29 11.8166 1492.34 11.4613 1485.95 11.4613V10.3954L1527.16 3.28937Z" fill="white"/>
</svg>
